<svg width="1024" height="1024" viewBox="0 0 1024 1024" fill="none" xmlns="http://www.w3.org/2000/svg">
<g clip-path="url(#clip0_1_228)">
<circle cx="518" cy="518" r="364" fill="#8EACE2"/>
<mask id="mask0_1_228" style="mask-type:alpha" maskUnits="userSpaceOnUse" x="179" y="-111" width="860" height="851">
<ellipse cx="609" cy="314.5" rx="430" ry="425.5" fill="#D9D9D9"/>
</mask>
<g mask="url(#mask0_1_228)">
<circle cx="518" cy="518" r="364" fill="#AAC7FF"/>
</g>
<path d="M713.979 425.065L714.094 425.352L714.402 425.378C726.153 426.361 737.106 431.724 745.089 440.404C753.072 449.084 757.502 460.448 757.5 472.241V535.601C757.5 548.071 752.547 560.031 743.729 568.849C734.912 577.667 722.953 582.62 710.484 582.62H705.811H705.459L705.341 582.952L673.247 672.804L673.718 672.973L673.247 672.804C671.085 678.862 667.102 684.102 661.845 687.807C656.588 691.512 650.314 693.501 643.882 693.5H618.699C612.267 693.501 605.993 691.512 600.736 687.807C595.479 684.102 591.496 678.862 589.333 672.804L585.532 662.152L585.414 661.82H585.061H471.616H471.264L471.145 662.152L467.344 672.804C465.182 678.862 461.199 684.102 455.942 687.807C450.685 691.512 444.41 693.501 437.979 693.5H412.795C406.36 693.505 400.082 691.518 394.821 687.813C389.56 684.107 385.574 678.865 383.41 672.804L382.939 672.973L383.41 672.804L358.543 603.188L358.511 603.097L358.447 603.025C334.847 576.302 320.073 542.945 316.142 507.509L316.061 506.781L315.412 507.121C310.217 509.846 305.864 513.939 302.827 518.959C299.789 523.978 298.181 529.733 298.177 535.6V535.601C298.177 539.669 296.561 543.571 293.685 546.448C290.808 549.324 286.907 550.941 282.839 550.941C278.771 550.941 274.869 549.324 271.993 546.448C269.116 543.571 267.5 539.67 267.5 535.602C267.559 521.615 272.281 508.047 280.919 497.046C289.557 486.045 301.618 478.239 315.191 474.865L315.54 474.778L315.569 474.42C319.097 430.892 338.864 390.284 370.946 360.658C403.027 331.032 445.076 314.556 488.742 314.5H694.645C698.713 314.5 702.615 316.116 705.491 318.993C708.368 321.87 709.984 325.772 709.984 329.84C709.984 333.908 708.368 337.81 705.491 340.687C702.615 343.564 698.713 345.18 694.645 345.18H652.237H650.654L651.95 346.089C678.159 364.479 698.772 389.761 711.509 419.137C712.36 421.115 713.189 423.09 713.979 425.065ZM315.705 508.098C319.736 543.437 334.523 576.69 358.073 603.356L298.677 535.601C298.681 529.825 300.264 524.159 303.254 519.218C306.152 514.43 310.264 510.498 315.17 507.818C315.162 507.752 315.155 507.685 315.148 507.619L315.645 507.564L315.877 508.007C315.819 508.037 315.762 508.067 315.705 508.098ZM488.742 393.541H567.935C572.269 393.541 576.425 391.82 579.489 388.755C582.553 385.691 584.274 381.535 584.274 377.201C584.274 372.868 582.553 368.712 579.489 365.647C576.425 362.583 572.269 360.861 567.935 360.861H488.742C484.409 360.861 480.253 362.583 477.189 365.647C474.125 368.712 472.403 372.868 472.403 377.201C472.403 381.535 474.125 385.691 477.189 388.755C480.253 391.82 484.409 393.541 488.742 393.541ZM609.894 500.332C613.883 502.998 618.573 504.421 623.371 504.421C629.805 504.421 635.975 501.865 640.524 497.315C645.073 492.766 647.629 486.595 647.629 480.161C647.629 475.363 646.206 470.672 643.541 466.683C640.875 462.693 637.087 459.584 632.654 457.748C628.222 455.911 623.344 455.431 618.638 456.367C613.933 457.303 609.611 459.614 606.218 463.007C602.825 466.399 600.515 470.722 599.579 475.428C598.643 480.134 599.123 485.012 600.959 489.445C602.795 493.878 605.905 497.667 609.894 500.332Z" fill="#1A1B1E" stroke="black"/>
<g style="mix-blend-mode:difference">
<path d="M349.522 725.917C344.384 725.917 339.817 724.345 335.822 721.202C331.826 718.058 329.067 714.017 327.544 709.077L298.432 603.473C297.481 599.858 298.101 596.528 300.293 593.483C302.485 590.439 305.48 588.917 309.278 588.917H363.507L413.74 514.138C414.692 512.615 416.024 511.378 417.736 510.427C419.449 509.476 421.256 509 423.159 509C425.062 509 426.869 509.476 428.582 510.427C430.294 511.378 431.626 512.615 432.578 514.138L482.811 588.917H537.611C541.417 588.917 544.415 590.439 546.607 593.483C548.799 596.528 549.416 599.858 548.457 603.473L519.344 709.077C517.822 714.024 515.063 718.07 511.067 721.213C507.072 724.356 502.505 725.924 497.367 725.917H349.522ZM349.236 703.083H497.653L522.769 611.75H324.119L349.236 703.083ZM423.444 680.25C429.724 680.25 435.101 678.016 439.576 673.548C444.052 669.081 446.285 663.703 446.278 657.417C446.278 651.137 444.044 645.764 439.576 641.296C435.108 636.829 429.731 634.591 423.444 634.583C417.165 634.583 411.792 636.821 407.324 641.296C402.856 645.772 400.619 651.145 400.611 657.417C400.611 663.696 402.849 669.073 407.324 673.548C411.799 678.024 417.173 680.258 423.444 680.25ZM391.192 588.917H455.411L423.159 540.967L391.192 588.917Z" fill="#D6E3FF"/>
</g>
</g>
<defs>
<clipPath id="clip0_1_228">
<rect width="1024" height="1024" fill="white"/>
</clipPath>
</defs>
</svg>
